<mxfile host="app.diagrams.net" agent="Mozilla/5.0 (Windows NT 10.0; Win64; x64) AppleWebKit/537.36 (KHTML, like Gecko) Chrome/131.0.0.0 Safari/537.36" version="25.0.3">
  <diagram name="Página-1" id="2AaQqFvCxkoajsdct7o-">
    <mxGraphModel dx="819" dy="470" grid="1" gridSize="10" guides="1" tooltips="1" connect="1" arrows="1" fold="1" page="1" pageScale="1" pageWidth="2339" pageHeight="3300" math="0" shadow="0">
      <root>
        <mxCell id="0" />
        <mxCell id="1" parent="0" />
        <mxCell id="o4--Y6cIEM0Qgt2PrnpY-3" style="edgeStyle=none;curved=1;rounded=0;orthogonalLoop=1;jettySize=auto;html=1;exitX=0.5;exitY=1;exitDx=0;exitDy=0;fontSize=12;startSize=8;endSize=8;endArrow=none;endFill=0;" edge="1" parent="1" source="o4--Y6cIEM0Qgt2PrnpY-4">
          <mxGeometry relative="1" as="geometry">
            <mxPoint x="350" y="690" as="targetPoint" />
          </mxGeometry>
        </mxCell>
        <mxCell id="o4--Y6cIEM0Qgt2PrnpY-4" value="USUARIO" style="rounded=0;whiteSpace=wrap;html=1;" vertex="1" parent="1">
          <mxGeometry x="290" y="156" width="120" height="60" as="geometry" />
        </mxCell>
        <mxCell id="o4--Y6cIEM0Qgt2PrnpY-5" style="edgeStyle=none;curved=1;rounded=0;orthogonalLoop=1;jettySize=auto;html=1;exitX=0.5;exitY=1;exitDx=0;exitDy=0;fontSize=12;startSize=8;endSize=8;endArrow=none;endFill=0;" edge="1" parent="1" source="o4--Y6cIEM0Qgt2PrnpY-6">
          <mxGeometry relative="1" as="geometry">
            <mxPoint x="532" y="690" as="targetPoint" />
          </mxGeometry>
        </mxCell>
        <mxCell id="o4--Y6cIEM0Qgt2PrnpY-6" value="INTERFAZ DE USUARIO" style="rounded=0;whiteSpace=wrap;html=1;" vertex="1" parent="1">
          <mxGeometry x="472" y="156" width="120" height="60" as="geometry" />
        </mxCell>
        <mxCell id="o4--Y6cIEM0Qgt2PrnpY-7" style="edgeStyle=none;curved=1;rounded=0;orthogonalLoop=1;jettySize=auto;html=1;exitX=0.5;exitY=1;exitDx=0;exitDy=0;fontSize=12;startSize=8;endSize=8;endArrow=none;endFill=0;" edge="1" parent="1" source="o4--Y6cIEM0Qgt2PrnpY-8">
          <mxGeometry relative="1" as="geometry">
            <mxPoint x="714" y="680" as="targetPoint" />
          </mxGeometry>
        </mxCell>
        <mxCell id="o4--Y6cIEM0Qgt2PrnpY-8" value="INTERFAZ DE SERVICIO" style="rounded=0;whiteSpace=wrap;html=1;" vertex="1" parent="1">
          <mxGeometry x="654" y="156" width="120" height="60" as="geometry" />
        </mxCell>
        <mxCell id="o4--Y6cIEM0Qgt2PrnpY-9" value="" style="endArrow=classic;html=1;rounded=0;fontSize=12;startSize=8;endSize=8;curved=1;" edge="1" parent="1">
          <mxGeometry width="50" height="50" relative="1" as="geometry">
            <mxPoint x="350" y="270" as="sourcePoint" />
            <mxPoint x="530" y="270" as="targetPoint" />
          </mxGeometry>
        </mxCell>
        <mxCell id="o4--Y6cIEM0Qgt2PrnpY-10" value="&lt;font style=&quot;font-size: 10px;&quot;&gt;Pulsar en &quot;Crear Pedido&quot;&lt;/font&gt;" style="text;html=1;align=center;verticalAlign=middle;resizable=0;points=[];autosize=1;strokeColor=none;fillColor=none;fontSize=16;" vertex="1" parent="1">
          <mxGeometry x="379" y="240" width="130" height="30" as="geometry" />
        </mxCell>
        <mxCell id="o4--Y6cIEM0Qgt2PrnpY-11" value="" style="endArrow=classic;html=1;rounded=0;fontSize=12;startSize=8;endSize=8;curved=1;" edge="1" parent="1">
          <mxGeometry width="50" height="50" relative="1" as="geometry">
            <mxPoint x="530" y="300" as="sourcePoint" />
            <mxPoint x="710" y="300" as="targetPoint" />
          </mxGeometry>
        </mxCell>
        <mxCell id="o4--Y6cIEM0Qgt2PrnpY-12" value="&lt;font style=&quot;font-size: 10px;&quot;&gt;Solicitar información para crear pedido&lt;/font&gt;" style="text;html=1;align=center;verticalAlign=middle;resizable=0;points=[];autosize=1;strokeColor=none;fillColor=none;fontSize=16;" vertex="1" parent="1">
          <mxGeometry x="529" y="270" width="190" height="30" as="geometry" />
        </mxCell>
        <mxCell id="o4--Y6cIEM0Qgt2PrnpY-13" value="" style="endArrow=classic;html=1;rounded=0;fontSize=12;startSize=8;endSize=8;curved=1;dashed=1;" edge="1" parent="1">
          <mxGeometry width="50" height="50" relative="1" as="geometry">
            <mxPoint x="710" y="350" as="sourcePoint" />
            <mxPoint x="530" y="350" as="targetPoint" />
          </mxGeometry>
        </mxCell>
        <mxCell id="o4--Y6cIEM0Qgt2PrnpY-15" value="&lt;font style=&quot;font-size: 10px;&quot;&gt;Informe de Crear Pedido&lt;/font&gt;" style="text;html=1;align=center;verticalAlign=middle;resizable=0;points=[];autosize=1;strokeColor=none;fillColor=none;fontSize=16;" vertex="1" parent="1">
          <mxGeometry x="559" y="320" width="130" height="30" as="geometry" />
        </mxCell>
        <mxCell id="o4--Y6cIEM0Qgt2PrnpY-16" value="" style="endArrow=classic;html=1;rounded=0;fontSize=12;startSize=8;endSize=8;curved=1;dashed=1;" edge="1" parent="1">
          <mxGeometry width="50" height="50" relative="1" as="geometry">
            <mxPoint x="534" y="390" as="sourcePoint" />
            <mxPoint x="354" y="390" as="targetPoint" />
          </mxGeometry>
        </mxCell>
        <mxCell id="o4--Y6cIEM0Qgt2PrnpY-17" value="&lt;font style=&quot;font-size: 10px;&quot;&gt;Informe de Crear Pedido&lt;/font&gt;" style="text;html=1;align=center;verticalAlign=middle;resizable=0;points=[];autosize=1;strokeColor=none;fillColor=none;fontSize=16;" vertex="1" parent="1">
          <mxGeometry x="383" y="360" width="130" height="30" as="geometry" />
        </mxCell>
        <mxCell id="o4--Y6cIEM0Qgt2PrnpY-18" value="" style="endArrow=classic;html=1;rounded=0;fontSize=12;startSize=8;endSize=8;curved=1;" edge="1" parent="1">
          <mxGeometry width="50" height="50" relative="1" as="geometry">
            <mxPoint x="349" y="440" as="sourcePoint" />
            <mxPoint x="529" y="440" as="targetPoint" />
          </mxGeometry>
        </mxCell>
        <mxCell id="o4--Y6cIEM0Qgt2PrnpY-19" value="&lt;font style=&quot;font-size: 10px;&quot;&gt;Rellena los campos del pedido&lt;/font&gt;" style="text;html=1;align=center;verticalAlign=middle;resizable=0;points=[];autosize=1;strokeColor=none;fillColor=none;fontSize=16;" vertex="1" parent="1">
          <mxGeometry x="363" y="410" width="160" height="30" as="geometry" />
        </mxCell>
        <mxCell id="o4--Y6cIEM0Qgt2PrnpY-21" value="" style="endArrow=classic;html=1;rounded=0;fontSize=12;startSize=8;endSize=8;curved=1;" edge="1" parent="1">
          <mxGeometry width="50" height="50" relative="1" as="geometry">
            <mxPoint x="529" y="480" as="sourcePoint" />
            <mxPoint x="709" y="480" as="targetPoint" />
          </mxGeometry>
        </mxCell>
        <mxCell id="o4--Y6cIEM0Qgt2PrnpY-22" value="&lt;font style=&quot;font-size: 10px;&quot;&gt;Solicita almacenar el pedido&lt;/font&gt;" style="text;html=1;align=center;verticalAlign=middle;resizable=0;points=[];autosize=1;strokeColor=none;fillColor=none;fontSize=16;" vertex="1" parent="1">
          <mxGeometry x="548" y="450" width="150" height="30" as="geometry" />
        </mxCell>
        <mxCell id="o4--Y6cIEM0Qgt2PrnpY-23" value="" style="endArrow=classic;html=1;rounded=0;fontSize=12;startSize=8;endSize=8;curved=1;dashed=1;" edge="1" parent="1">
          <mxGeometry width="50" height="50" relative="1" as="geometry">
            <mxPoint x="713" y="530" as="sourcePoint" />
            <mxPoint x="533" y="530" as="targetPoint" />
          </mxGeometry>
        </mxCell>
        <mxCell id="o4--Y6cIEM0Qgt2PrnpY-24" value="&lt;font style=&quot;font-size: 10px;&quot;&gt;Pedido almacenado&lt;/font&gt;" style="text;html=1;align=center;verticalAlign=middle;resizable=0;points=[];autosize=1;strokeColor=none;fillColor=none;fontSize=16;" vertex="1" parent="1">
          <mxGeometry x="572" y="500" width="110" height="30" as="geometry" />
        </mxCell>
        <mxCell id="o4--Y6cIEM0Qgt2PrnpY-25" value="" style="endArrow=classic;html=1;rounded=0;fontSize=12;startSize=8;endSize=8;curved=1;dashed=1;" edge="1" parent="1">
          <mxGeometry width="50" height="50" relative="1" as="geometry">
            <mxPoint x="533" y="570" as="sourcePoint" />
            <mxPoint x="353" y="570" as="targetPoint" />
          </mxGeometry>
        </mxCell>
        <mxCell id="o4--Y6cIEM0Qgt2PrnpY-26" value="&lt;font style=&quot;font-size: 10px;&quot;&gt;Pedido almacenado&lt;/font&gt;" style="text;html=1;align=center;verticalAlign=middle;resizable=0;points=[];autosize=1;strokeColor=none;fillColor=none;fontSize=16;" vertex="1" parent="1">
          <mxGeometry x="392" y="540" width="110" height="30" as="geometry" />
        </mxCell>
      </root>
    </mxGraphModel>
  </diagram>
</mxfile>
